<?xml version="1.0" standalone="no"?>
<svg viewBox="0 0 200 200" xmlns="http://www.w3.org/2000/svg">
  <path fill="#FFA500" d="M36.8,-59.7C50.1,-56,64.9,-51,67.4,-40.9C70,-30.7,60.2,-15.3,61,0.5C61.9,16.3,73.3,32.6,69.3,40.3C65.3,48,46,47,31.8,49.8C17.7,52.7,8.9,59.3,-3.6,65.5C-16,71.7,-32,77.4,-35.7,68.6C-39.4,59.7,-30.8,36.2,-37.1,22.4C-43.5,8.5,-65,4.3,-74,-5.2C-83.1,-14.7,-79.8,-29.4,-73.6,-43.6C-67.3,-57.7,-58.1,-71.2,-45.3,-75.2C-32.6,-79.2,-16.3,-73.7,-2.3,-69.7C11.7,-65.8,23.5,-63.4,36.8,-59.7Z" transform="translate(100 100)" />
</svg>
